<?xml version="1.0" encoding="iso-8859-1"?>
<!-- Generator: Adobe Illustrator 19.0.0, SVG Export Plug-In . SVG Version: 6.00 Build 0)  -->
<svg version="1.1" id="Capa_1" xmlns="http://www.w3.org/2000/svg" xmlns:xlink="http://www.w3.org/1999/xlink" x="0px" y="0px"
	 viewBox="0 0 512 512" style="enable-background:new 0 0 512 512;" xml:space="preserve">
<polygon style="fill:#DCF4FF;" points="405.793,119.233 255.499,179.35 105.205,119.233 0,179.35 0,499.977 105.205,439.859 
	255.499,499.977 405.793,439.859 512,499.977 512,179.35 "/>
<g>
	<polygon style="fill:#ACE3FC;" points="0,179.35 0,499.977 105.205,439.859 105.205,119.233 	"/>
	<polygon style="fill:#ACE3FC;" points="255.499,179.35 255.499,499.977 405.793,439.859 405.793,119.233 	"/>
</g>
<path style="fill:#FFAB15;" d="M255.499,12.023c-66.404,0-120.235,53.831-120.235,120.235c0,44.908,17.84,87.977,49.595,119.732
	l70.64,70.64l70.64-70.64c31.755-31.755,49.595-74.824,49.595-119.732C375.734,65.855,321.903,12.023,255.499,12.023z
	 M255.499,162.317c-16.601,0-30.059-13.457-30.059-30.059s13.457-30.059,30.059-30.059s30.059,13.457,30.059,30.059
	S272.1,162.317,255.499,162.317z"/>
<path style="fill:#FF9400;" d="M255.499,12.023V102.2c16.601,0,30.059,13.457,30.059,30.059s-13.457,30.059-30.059,30.059V322.63
	l70.64-70.64c31.755-31.755,49.595-74.824,49.595-119.732C375.734,65.855,321.903,12.023,255.499,12.023z"/>
<g>
</g>
<g>
</g>
<g>
</g>
<g>
</g>
<g>
</g>
<g>
</g>
<g>
</g>
<g>
</g>
<g>
</g>
<g>
</g>
<g>
</g>
<g>
</g>
<g>
</g>
<g>
</g>
<g>
</g>
</svg>
