<svg xmlns="http://www.w3.org/2000/svg" viewBox="0 0 150 150"><defs><style>.cls-1{fill:#447ec1;}.cls-2{fill:#fff;}.cls-3{fill:#212121;}.cls-4{fill:#e4e6e6;}</style></defs><title>CMS-Website</title><g id="Layer_2" data-name="Layer 2"><g id="Layer_1-2" data-name="Layer 1"><circle class="cls-1" cx="75" cy="75" r="75"/><path class="cls-2" d="M65,96.88H86.28v10H65Z"/><path class="cls-3" d="M62.52,106.88H88.76a2.48,2.48,0,0,1,0,5H62.52a2.48,2.48,0,0,1,0-5Z"/><path class="cls-2" d="M38.76,38.16h72.48A3.76,3.76,0,0,1,115,41.92V92.4c0,2.08-80,2.08-80,0V41.92A3.76,3.76,0,0,1,38.76,38.16Z"/><path class="cls-3" d="M35,82.12h80V84.4H35Z"/><path class="cls-3" d="M35,41.92h80v2.29H35Z"/><path class="cls-1" d="M66.28,53.2H83.8a1.26,1.26,0,0,1,1.28,1.28V73.2a1.26,1.26,0,0,1-1.28,1.28H66.28A1.26,1.26,0,0,1,65,73.2V54.4A1.25,1.25,0,0,1,66.28,53.2Z"/><path class="cls-2" d="M70,68.16H80v2.48H70Z"/><path class="cls-2" d="M75,56.88a3.76,3.76,0,1,1-3.76,3.76A3.76,3.76,0,0,1,75,56.88Z"/><path class="cls-4" d="M35,93.2A3.76,3.76,0,0,0,38.76,97h72.48A3.76,3.76,0,0,0,115,93.2v-5H35Z"/></g></g></svg>