<svg xmlns="http://www.w3.org/2000/svg" viewBox="0 0 150 150"><defs><style>.cls-1{fill:#add588;}.cls-2{fill:#fff;}.cls-3{fill:#212121;}.cls-4{fill:#010101;}</style></defs><title>digital-marketing</title><g id="Layer_2" data-name="Layer 2"><g id="Layer_1-2" data-name="Layer 1"><circle class="cls-1" cx="75" cy="75" r="75"/><path class="cls-2" d="M110.91,29.06a10,10,0,0,0-8.81,14.8L85.69,60.28a13.27,13.27,0,0,0-16.36,0L56.51,47.47a6.59,6.59,0,0,0,.95-3.37,6.68,6.68,0,1,0-6.68,6.68,6.59,6.59,0,0,0,3.37-.95L67,62.64A13.28,13.28,0,0,0,67,79L45.81,100.16a9.92,9.92,0,1,0,2.09,2.64L69.33,81.37a13.28,13.28,0,0,0,6.51,2.7v17a10,10,0,1,0,3.34,0v-17a13.28,13.28,0,0,0,6.51-2.7L98.5,94.18a6.59,6.59,0,0,0-.95,3.37,6.68,6.68,0,1,0,6.68-6.68,6.59,6.59,0,0,0-3.37.95L88,79a13.28,13.28,0,0,0,0-16.36L104.19,46.5a10,10,0,1,0,6.72-17.44Zm-63.48,15a3.34,3.34,0,1,1,3.34,3.34A3.34,3.34,0,0,1,47.44,44.1Zm-8.35,70.16a6.68,6.68,0,1,1,6.68-6.68A6.69,6.69,0,0,1,39.09,114.26Zm45.1-3.34a6.68,6.68,0,1,1-6.68-6.68A6.69,6.69,0,0,1,84.19,110.91ZM77.51,80.85a10,10,0,1,1,10-10A10,10,0,0,1,77.51,80.85Zm30.07,16.7a3.34,3.34,0,1,1-3.34-3.34A3.34,3.34,0,0,1,107.57,97.55Zm3.34-51.78a6.68,6.68,0,1,1,6.68-6.68A6.69,6.69,0,0,1,110.91,45.77Z"/><path class="cls-3" d="M56.52,47.46a6.59,6.59,0,0,0,.95-3.37,6.68,6.68,0,1,0-6.68,6.68,6.59,6.59,0,0,0,3.37-.95m-6.71-5.73a3.34,3.34,0,1,1,3.34,3.34A3.34,3.34,0,0,1,47.44,44.09Z"/><path class="cls-3" d="M98.51,94.18a6.59,6.59,0,0,0-.95,3.37,6.68,6.68,0,1,0,6.68-6.68,6.59,6.59,0,0,0-3.37.95m6.71,5.73a3.34,3.34,0,1,1-3.34-3.34A3.34,3.34,0,0,1,107.58,97.56Z"/><circle class="cls-2" cx="77.63" cy="70.07" r="11.01"/><circle class="cls-2" cx="77.63" cy="111.4" r="8.54"/><circle class="cls-2" cx="111.32" cy="39.2" r="8.54"/><path class="cls-4" d="M75.6,79v-9H74V67.92H75.6V66.2a2.6,2.6,0,0,1,.83-2.07,3.49,3.49,0,0,1,2.37-.72q.36,0,.76,0t.8.09v2.2l-.33,0h-.5a1.5,1.5,0,0,0-1,.28A1.46,1.46,0,0,0,78.19,67v.89h2.1v2.14h-2v9Z"/><path class="cls-3" d="M80.31,104.79H75A3.94,3.94,0,0,0,71,108.73v5.34A3.94,3.94,0,0,0,75,118h5.34a3.94,3.94,0,0,0,3.94-3.94v-5.34A3.94,3.94,0,0,0,80.31,104.79Zm2.61,9.28a2.61,2.61,0,0,1-2.61,2.61H75a2.61,2.61,0,0,1-2.61-2.61v-5.34A2.61,2.61,0,0,1,75,106.12h5.34a2.61,2.61,0,0,1,2.61,2.61v5.34Z"/><path class="cls-3" d="M77.63,108a3.42,3.42,0,1,0,3.42,3.42A3.42,3.42,0,0,0,77.63,108Zm0,5.51a2.09,2.09,0,1,1,2.09-2.09A2.09,2.09,0,0,1,77.63,113.49Z"/><circle class="cls-3" cx="81.06" cy="108.01" r="0.82"/><path class="cls-4" d="M107.73,33.35a1.13,1.13,0,1,0,1.13,1.13A1.13,1.13,0,0,0,107.73,33.35Z"/><rect class="cls-4" x="106.75" y="36.48" width="1.96" height="6.29"/><path class="cls-4" d="M113.69,36.32a2.05,2.05,0,0,0-1.85,1h0v-.86h-1.88v6.29h2V39.66c0-.82.16-1.62,1.17-1.62s1,.94,1,1.67v3.06h2V39.32C116,37.63,115.67,36.32,113.69,36.32Z"/></g></g></svg>