<svg xmlns="http://www.w3.org/2000/svg" viewBox="0 0 150 150"><defs><style>.cls-1{fill:#47bea3;}.cls-2{fill:#e6e7e8;}.cls-3{fill:#fff;}.cls-4{fill:#212121;}.cls-5{fill:#274054;}</style></defs><title>Ecommerce</title><g id="Layer_2" data-name="Layer 2"><g id="Layer_1-2" data-name="Layer 1"><circle class="cls-1" cx="75" cy="75" r="75"/><path class="cls-2" d="M38.8,35.09h72.33V97.38H38.87Z"/><path class="cls-3" d="M35.06,50.06v60.3c0,2.93,2.37,4.55,5.3,4.55h69.21c2.93,0,5.3-1.62,5.3-4.55V50.06C114.88,50.12,35.12,50.06,35.06,50.06Z"/><polygon class="cls-4" points="46.29 40.14 38.8 35.09 38.8 47.56 46.29 47.56 46.29 40.14 46.29 40.14"/><polygon class="cls-4" points="111.13 35.09 103.65 40.08 103.65 47.56 111.13 47.56 111.13 35.09"/><path class="cls-5" d="M46.29,50.06v-10L35,50.06Zm57.37-10v10H115Z"/><path class="cls-4" d="M52.77,64.4a3.46,3.46,0,0,0-3.43,3.43,3.42,3.42,0,0,0,3.43,3.43,3.46,3.46,0,0,0,3.43-3.43A3.38,3.38,0,0,0,52.77,64.4Zm41.78,0a3.46,3.46,0,0,0-3.43,3.43,3.42,3.42,0,0,0,3.43,3.43A3.46,3.46,0,0,0,98,67.83,3.38,3.38,0,0,0,94.55,64.4Z"/><path class="cls-1" d="M73.72,91.15a22.57,22.57,0,0,1-22.45-22.7,1.56,1.56,0,0,1,3.12,0,19.33,19.33,0,1,0,38.66,0,1.56,1.56,0,0,1,3.12,0A22.61,22.61,0,0,1,73.72,91.15Z"/></g></g></svg>