<svg xmlns="http://www.w3.org/2000/svg" viewBox="0 0 150 150"><defs><style>.cls-1{fill:#f79c79;}.cls-2{fill:#212121;}.cls-3{fill:#fff;}</style></defs><title>Logo-&amp;amp;-Graphic</title><g id="Layer_2" data-name="Layer 2"><g id="Layer_1-2" data-name="Layer 1"><circle class="cls-1" cx="75" cy="75" r="75"/><path class="cls-2" d="M91.25,118.22a9.25,9.25,0,0,1-7-2.87,9.6,9.6,0,0,1-2.07-3.79c-.74.39-1.42.74-2,1-8.72,4.32-19,4.9-28,4.9H34.88a1.65,1.65,0,0,1,0-3.31H52.22c8.55,0,18.38-.54,26.48-4.56q1.53-.76,2.94-1.53a30.1,30.1,0,0,1,1-8.64c2.48-10,8-10.42,9.63-10.32a6.3,6.3,0,0,1,5.89,5.38c.68,6-6.86,11.71-13,15.35a6.84,6.84,0,0,0,1.53,3.25c1.88,2.08,4.79,1.83,5.64,1.71,3.23-.48,9.73-6.51,13.06-10.2a1.65,1.65,0,0,1,2.75,1.74c-1.55,3.72-2,7.42-1.22,7.84,1.56.88,5.84-1.82,8.63-4.83a1.65,1.65,0,1,1,2.42,2.25c-.31.34-7.73,8.24-12.67,5.46-1.89-1.06-2.22-3.37-2-5.72-3.18,2.93-7.38,6.26-10.53,6.73A11,11,0,0,1,91.25,118.22Zm.63-25.77c-2.54,0-4.77,2.9-6,7.82a31,31,0,0,0-.94,5.9c6.54-4.1,10.31-8.27,10-11.26a3,3,0,0,0-2.82-2.46Z"/><polygon class="cls-3" points="105.39 50.6 94.83 61.17 90.23 65.78 56.3 99.69 31.56 105.61 37.47 80.86 71.4 46.95 76 42.34 86.56 31.77 105.39 50.6"/><rect class="cls-2" x="79.87" y="40.75" width="6.51" height="26.63" transform="translate(-13.88 74.61) rotate(-45)"/></g></g></svg>