<svg xmlns="http://www.w3.org/2000/svg" viewBox="0 0 150 150"><defs><style>.cls-1{fill:#fbd764;}.cls-2{fill:#fff;}.cls-3{fill:#212121;}</style></defs><title>Mobile-App</title><g id="Layer_2" data-name="Layer 2"><g id="Layer_1-2" data-name="Layer 1"><circle class="cls-1" cx="75" cy="75" r="75"/><path class="cls-2" d="M102,34.88v80.24a9.28,9.28,0,0,1-9.26,9.25H57.26A9.28,9.28,0,0,1,48,115.12V34.88a9.28,9.28,0,0,1,9.26-9.25H92.74A9.28,9.28,0,0,1,102,34.88Z"/><rect class="cls-2" x="48" y="40.51" width="54" height="68.98"/><path class="cls-3" d="M48,110.49h54v-2H48Zm0-71v2h54v-2Z"/><path class="cls-3" d="M71.14,115.12h7.71a2.31,2.31,0,0,1,0,4.63H71.14a2.27,2.27,0,0,1-2.31-2.31A2.32,2.32,0,0,1,71.14,115.12ZM70.37,31h9.26a1.54,1.54,0,1,1,0,3.09H70.37a1.54,1.54,0,0,1,0-3.09Z"/></g></g></svg>