<?xml version="1.0" encoding="utf-8"?>
<!-- Generator: Adobe Illustrator 21.0.0, SVG Export Plug-In . SVG Version: 6.00 Build 0)  -->
<svg version="1.1" id="Layer_1" xmlns="http://www.w3.org/2000/svg" xmlns:xlink="http://www.w3.org/1999/xlink" x="0px" y="0px"
	 viewBox="0 0 470 470" style="enable-background:new 0 0 470 470;" xml:space="preserve">
<style type="text/css">
	.st0{fill:#0d3907;}
	.st1{fill:#274054;}
</style>
<g>
	<path class="st0" d="M167.3,209.1c-2.1-3.6-6.7-4.7-10.3-2.6l-87.4,52c-2.3,1.4-3.7,3.8-3.7,6.4s1.4,5.1,3.7,6.4l87.4,52
		c1.2,0.7,2.5,1.1,3.8,1.1c2.6,0,5-1.3,6.4-3.7c2.1-3.6,1-8.2-2.6-10.3L88.2,265l76.6-45.6C168.3,217.3,169.4,212.7,167.3,209.1
		L167.3,209.1z"/>
	<path class="st0" d="M302.7,320.9c1.4,2.4,3.9,3.7,6.5,3.7c1.3,0,2.6-0.3,3.8-1.1l87.4-52c2.3-1.4,3.7-3.8,3.7-6.4
		s-1.4-5.1-3.7-6.4l-87.4-52c-3.6-2.1-8.2-1-10.3,2.6c-2.1,3.6-1,8.2,2.6,10.3l76.6,45.6l-76.6,45.6
		C301.7,312.7,300.6,317.3,302.7,320.9z"/>
	<path class="st0" d="M263.7,208.8l-69.9,104.1c-2.3,3.4-1.4,8.1,2,10.4c1.3,0.9,2.7,1.3,4.2,1.3c2.4,0,4.8-1.2,6.2-3.3l69.9-104.1
		c2.3-3.4,1.4-8.1-2-10.4C270.7,204.4,266,205.3,263.7,208.8L263.7,208.8z"/>
	<path class="st1" d="M462.5,22.5H7.5C3.4,22.5,0,25.9,0,30v410c0,4.1,3.4,7.5,7.5,7.5h455c4.1,0,7.5-3.4,7.5-7.5v-80
		c0-4.1-3.4-7.5-7.5-7.5s-7.5,3.4-7.5,7.5v72.5H15v-335h440V330c0,4.1,3.4,7.5,7.5,7.5s7.5-3.4,7.5-7.5V30
		C470,25.9,466.6,22.5,462.5,22.5z M15,37.5h277.5v45H15V37.5z M307.5,82.5v-45H455v45H307.5z"/>
	<path class="st0" d="M381.5,52c-4.4,0-8,3.6-8,8s3.6,8,8,8s8-3.6,8-8S385.9,52,381.5,52z"/>
	<path class="st0" d="M340.5,52c-4.4,0-8,3.6-8,8s3.6,8,8,8s8-3.6,8-8S344.9,52,340.5,52z"/>
	<path class="st0" d="M422.5,52c-4.4,0-8,3.6-8,8s3.6,8,8,8s8-3.6,8-8S426.9,52,422.5,52z"/>
</g>
</svg>
