<?xml version="1.0" encoding="utf-8"?>
<!-- Generator: Adobe Illustrator 21.0.0, SVG Export Plug-In . SVG Version: 6.00 Build 0)  -->
<svg version="1.1" id="Layer_1" xmlns="http://www.w3.org/2000/svg" xmlns:xlink="http://www.w3.org/1999/xlink" x="0px" y="0px"
	 viewBox="0 0 512 512" style="enable-background:new 0 0 512 512;" xml:space="preserve">
<style type="text/css">
	.st0{fill:#0d3907;}
	.st1{fill:#274054;}
</style>
<g>
	<path class="st0" d="M258.4,125.8c-23,0-41.7,18.7-41.7,41.7s18.7,41.7,41.7,41.7s41.7-18.7,41.7-41.7S281.4,125.8,258.4,125.8z
		 M258.4,193c-14.1,0-25.5-11.4-25.5-25.5s11.4-25.5,25.5-25.5s25.5,11.4,25.5,25.5S272.5,193,258.4,193z"/>
	<path class="st1" d="M424.2,361.9V242.2c0-2.2-0.9-4.2-2.4-5.8L344,159v-17.1c0-27.9-7.9-55-22.8-78.4
		c-14.5-22.8-35-41.1-59.2-52.9c-2.2-1.1-4.9-1.1-7.1,0c-24.2,11.8-44.7,30.1-59.2,52.9c-14.9,23.4-22.8,50.5-22.8,78.4V159
		L95,236.4c-1.5,1.5-2.4,3.6-2.4,5.8v119.7c0,4.5,3.6,8.1,8.1,8.1h72.2v0.3c0,15.8,12.8,28.6,28.6,28.6h12
		c-4.8,10-7.3,20.9-7.3,32.2c0,31.5,19.9,59.8,49.4,70.6c0.9,0.3,1.8,0.5,2.8,0.5c0.9,0,1.9-0.2,2.8-0.5
		c29.6-10.7,49.4-39.1,49.4-70.6c0-11.3-2.5-22.2-7.3-32.2h12c15.8,0,28.6-12.8,28.6-28.6V370h72.2
		C420.6,370,424.2,366.3,424.2,361.9z M172.8,339.1v14.7h-64.1l0,0V245.6l64.1-63.7V339.1z M201.4,382.7c-6.8,0-12.4-5.6-12.4-12.4
		v-8.4v-14.7h61.2v35.5H201.4z M258.4,485.4c-21.6-9.1-36-30.6-36-54.2c0-11.4,3.2-22.3,9.4-31.8h18.5v15c0,4.5,3.6,8.1,8.1,8.1
		s8.1-3.6,8.1-8.1v-15H285c6.1,9.5,9.4,20.4,9.4,31.8C294.4,454.8,280,476.2,258.4,485.4z M327.7,370.3L327.7,370.3
		c0,6.8-5.6,12.4-12.4,12.4h-48.8v-35.5h61.3v23.1H327.7z M408,353.7h-64V339v-50c0-4.5-3.6-8.1-8.1-8.1s-8.1,3.6-8.1,8.1v42h-61.3
		v-21.5c0-4.5-3.6-8.1-8.1-8.1s-8.1,3.6-8.1,8.1V331H189V162.4v-20.5c0-48.7,26.5-92.3,69.4-114.9c42.9,22.6,69.4,66.2,69.4,114.9
		v119.6c0,4.5,3.6,8.1,8.1,8.1s8.1-3.6,8.1-8.1v-79.6l64.1,63.7L408,353.7L408,353.7z"/>
	<path class="st0" d="M443.5,412.1c-9.1,0-18.1,1.8-26.4,5.3c-4.5-14.4-18-24.9-33.9-24.9c-19.6,0-35.6,16-35.6,35.6
		c0,4.5,3.6,8.1,8.1,8.1s8.1-3.6,8.1-8.1c0-10.7,8.7-19.4,19.4-19.4s19.4,8.7,19.4,19.4c0,4.6-1.6,9-4.6,12.5
		c-2.9,3.4-2.5,8.5,1,11.4c1.5,1.3,3.4,1.9,5.2,1.9c2.3,0,4.6-1,6.2-2.9c3.9-4.6,6.6-10.2,7.7-16.1c7.7-4.3,16.5-6.6,25.5-6.6
		c28.8,0,52.2,23.4,52.2,52.2c0,4.5,3.6,8.1,8.1,8.1s8.1-3.6,8.1-8.1C512,442.8,481.3,412.1,443.5,412.1z"/>
	<path class="st0" d="M155.2,446.4c-3.2,0-6.4,0.4-9.4,1.1c1.2-2,1.5-4.4,0.7-6.8c-6.3-17.9-23.3-30-42.3-30
		c-14,0-27.3,6.6-35.7,17.8c-4.5-1.2-9.2-1.8-14-1.8c-30,0-54.4,24.4-54.4,54.4c0,4.5,3.6,8.1,8.1,8.1s8.1-3.6,8.1-8.1
		c0-21,17.1-38.2,38.2-38.2c13.2,0,25.3,6.7,32.3,17.9c2.4,3.8,7.4,4.9,11.2,2.5c3.8-2.4,4.9-7.4,2.5-11.2
		c-4.3-6.9-10-12.6-16.6-16.8c5.3-5.3,12.6-8.4,20.3-8.4c12.2,0,23,7.7,27,19.2c0.9,2.5,2.8,4.2,5.1,5c-13,6.9-22,20.5-22,36.3
		c0,4.5,3.6,8.1,8.1,8.1s8.1-3.6,8.1-8.1c0-13.6,11.1-24.7,24.7-24.7s24.7,11.1,24.7,24.7c0,4.5,3.6,8.1,8.1,8.1s8.1-3.6,8.1-8.1
		C196.2,464.8,177.8,446.4,155.2,446.4z"/>
</g>
</svg>
