<svg xmlns="http://www.w3.org/2000/svg" viewBox="0 0 150 150"><defs><style>.cls-1{fill:#c49a6c;}.cls-2{fill:#fff;}.cls-3{fill:#010101;}</style></defs><title>SEO-Services</title><g id="Layer_2" data-name="Layer 2"><g id="Layer_1-2" data-name="Layer 1"><circle class="cls-1" cx="75" cy="75" r="75"/><path class="cls-2" d="M36.94,33h76.12A4,4,0,0,1,117,36.94v76.12a4,4,0,0,1-3.94,3.94H36.94A4,4,0,0,1,33,113.06V36.94A4,4,0,0,1,36.94,33Z"/><path class="cls-1" d="M40.88,38.91a2.63,2.63,0,1,0,2.62,2.63A2.63,2.63,0,0,0,40.88,38.91Zm7.87,0a2.63,2.63,0,1,0,2.63,2.63A2.63,2.63,0,0,0,48.75,38.91Zm7.88,0a2.63,2.63,0,1,0,2.63,2.63A2.63,2.63,0,0,0,56.63,38.91Z"/><path class="cls-3" d="M56.47,90.66A36.76,36.76,0,0,0,106.71,77.5a1.26,1.26,0,0,0,0-1.28,36.76,36.76,0,0,0-63.41,0,1.26,1.26,0,0,0,0,1.28A37,37,0,0,0,56.47,90.66Zm18,2.48a16.28,16.28,0,0,1,0-32.54h1a16.28,16.28,0,0,1,0,32.54h-1Zm29.64-16.27A34.41,34.41,0,0,1,87.76,90.66a18.76,18.76,0,0,0,0-27.58A34.41,34.41,0,0,1,104.15,76.87ZM62.24,63.07a18.76,18.76,0,0,0,0,27.58A34.41,34.41,0,0,1,45.85,76.87,34.41,34.41,0,0,1,62.24,63.07Z"/><path class="cls-1" d="M83.38,76.87a8.32,8.32,0,0,0-.74-3.45,1.26,1.26,0,0,0-2.3,1,5.87,5.87,0,1,1-2.93-2.93,1.26,1.26,0,0,0,1-2.3,8.38,8.38,0,1,0,4.93,7.64Z"/></g></g></svg>