<svg xmlns="http://www.w3.org/2000/svg" xmlns:xlink="http://www.w3.org/1999/xlink" version="1.1" id="Capa_1" x="0px" y="0px" viewBox="0 0 50 50" style="enable-background:new 0 0 50 50;" xml:space="preserve">
<style type="text/css">
	.st0{fill:#253f52;}
	.st1{fill:#FFFFFF;}
</style>
<path class="st0" d="M50,25c0,13.8-11.2,25-25,25C11.2,50,0,38.8,0,25C0,11.2,11.2,0,25,0c4.2,0,8.2,1,11.8,3l-2.6,3  c-2.9-1.4-6-2.1-9.3-2.1C13.6,3.9,4.2,13,3.9,24.4c0,0.2,0,0.4,0,0.6c0,0.7,0,1.3,0.1,2c1,10.7,10,19.2,21,19.2  c11.7,0,21.1-9.5,21.1-21.1c0-2.4-0.4-4.7-1.2-6.9l2.8-3.4C49.3,17.9,50,21.4,50,25z"/>
<g>
	<path class="st0" d="M50.5,2.3L23.1,34.6c-0.3,0.4-0.8,0.7-1.5,0.7c-0.4,0-0.8-0.2-1-0.3l-0.2-0.1L10.6,27c-0.8-0.6-1-1.9-0.4-2.8   c0.4-0.5,1-0.8,1.6-0.8c0.4,0,0.8,0.1,1.1,0.3l8.3,6.7L47.5-0.3C48-0.8,48.5-1,49.1-1c0.5,0,0.9,0.2,1.3,0.5   C51.2,0.3,51.2,1.6,50.5,2.3z"/>
	<path class="st1" d="M3.9,25c0-0.2,0-0.4,0-0.6c-0.1,0.7-0.1,1.5,0,2.2c0,0.1,0,0.3,0.1,0.4C3.9,26.3,3.9,25.7,3.9,25z"/>
</g>
</svg>