<svg xmlns="http://www.w3.org/2000/svg" viewBox="0 0 150 150"><defs><style>.cls-1{fill:#a0a9d5;}.cls-2{fill:#fff;}.cls-3{fill:#212121;}</style></defs><title>Web-Design</title><g id="Layer_2" data-name="Layer 2"><g id="Layer_1-2" data-name="Layer 1"><circle class="cls-1" cx="75" cy="75" r="75"/><path class="cls-2" d="M36.94,33h76.12A4,4,0,0,1,117,36.94v76.12a4,4,0,0,1-3.94,3.94H36.94A4,4,0,0,1,33,113.06V36.94A4,4,0,0,1,36.94,33Z"/><rect class="cls-2" x="45.81" y="57.63" width="58.38" height="19" rx="1.63" ry="1.63"/><path class="cls-3" d="M102.56,58.63a.63.63,0,0,1,.63.63V75a.63.63,0,0,1-.63.63H47.44a.63.63,0,0,1-.63-.62V59.25a.63.63,0,0,1,.63-.63h55.12m0-2H47.44a2.63,2.63,0,0,0-2.63,2.63V75a2.63,2.63,0,0,0,2.63,2.63h55.12A2.63,2.63,0,0,0,105.19,75V59.25a2.63,2.63,0,0,0-2.63-2.63Z"/><path class="cls-1" d="M47.44,84.84H69.09a2.63,2.63,0,0,1,2.63,2.63v14.44a2.63,2.63,0,0,1-2.63,2.63H47.44a2.63,2.63,0,0,1-2.63-2.63V87.47A2.63,2.63,0,0,1,47.44,84.84Zm55.78,0H78.94a2,2,0,0,0,0,3.94h24.28a1.93,1.93,0,0,0,2-2A2,2,0,0,0,103.22,84.84Zm0,7.88H78.94a2,2,0,0,0,0,3.94h24.28a1.93,1.93,0,0,0,2-2A2,2,0,0,0,103.22,92.72Zm0,7.88H78.94a2,2,0,1,0,0,3.94h24.28a1.93,1.93,0,0,0,2-2A2,2,0,0,0,103.22,100.59Z"/><path class="cls-1" d="M40.88,38.91a2.63,2.63,0,1,0,2.62,2.63A2.63,2.63,0,0,0,40.88,38.91Zm7.87,0a2.63,2.63,0,1,0,2.63,2.63A2.63,2.63,0,0,0,48.75,38.91Zm7.88,0a2.63,2.63,0,1,0,2.63,2.63A2.63,2.63,0,0,0,56.63,38.91Z"/></g></g></svg>