<svg xmlns="http://www.w3.org/2000/svg" viewBox="0 0 150 150"><defs><style>.cls-1{fill:#ea6491;}.cls-2{fill:#fff;}.cls-3{fill:#010101;}</style></defs><title>website-development</title><g id="Layer_2" data-name="Layer 2"><g id="Layer_1-2" data-name="Layer 1"><circle class="cls-1" cx="75" cy="75" r="75"/><path class="cls-2" d="M36.94,33h76.12A4,4,0,0,1,117,36.94v76.12a4,4,0,0,1-3.94,3.94H36.94A4,4,0,0,1,33,113.06V36.94A4,4,0,0,1,36.94,33Z"/><path class="cls-1" d="M40.88,38.91a2.63,2.63,0,1,0,2.62,2.63A2.63,2.63,0,0,0,40.88,38.91Zm7.87,0a2.63,2.63,0,1,0,2.63,2.63A2.63,2.63,0,0,0,48.75,38.91Zm7.88,0a2.63,2.63,0,1,0,2.63,2.63A2.63,2.63,0,0,0,56.63,38.91Z"/><path class="cls-3" d="M40.16,53.85H95.69a1.83,1.83,0,0,1,1.91,1.72v1.72A1.83,1.83,0,0,1,95.69,59H40.16a1.83,1.83,0,0,1-1.91-1.72V55.56A1.83,1.83,0,0,1,40.16,53.85Z"/><path class="cls-1" d="M63.14,65.87h-23a1.83,1.83,0,0,0-1.91,1.72V69.3A1.83,1.83,0,0,0,40.16,71h23a1.83,1.83,0,0,0,1.91-1.72V67.59A1.83,1.83,0,0,0,63.14,65.87Zm-5.74,24H40.16a1.83,1.83,0,0,0-1.91,1.72v1.72a1.83,1.83,0,0,0,1.91,1.72H57.4a1.83,1.83,0,0,0,1.91-1.72V91.63A1.83,1.83,0,0,0,57.4,89.91Zm51.7,0H97.61a1.83,1.83,0,0,0-1.91,1.72v1.72a1.83,1.83,0,0,0,1.91,1.72h11.49A1.83,1.83,0,0,0,111,93.35V91.63A1.83,1.83,0,0,0,109.09,89.91Z"/><path class="cls-1" d="M109.09,65.87H74.63a1.83,1.83,0,0,0-1.91,1.72V69.3A1.83,1.83,0,0,0,74.63,71h34.46A1.83,1.83,0,0,0,111,69.3V67.59A1.83,1.83,0,0,0,109.09,65.87Z"/><path class="cls-1" d="M109.09,101.93H40.16a1.83,1.83,0,0,0-1.91,1.72v1.72a1.83,1.83,0,0,0,1.91,1.72h68.93a1.83,1.83,0,0,0,1.91-1.72v-1.72A1.83,1.83,0,0,0,109.09,101.93Z"/><path class="cls-3" d="M86.12,77.89h-46a1.83,1.83,0,0,0-1.91,1.72v1.72A1.83,1.83,0,0,0,40.16,83h46A1.83,1.83,0,0,0,88,81.32V79.61A1.83,1.83,0,0,0,86.12,77.89Zm0,12H68.89A1.83,1.83,0,0,0,67,91.63v1.72a1.83,1.83,0,0,0,1.91,1.72H86.12A1.83,1.83,0,0,0,88,93.35V91.63A1.83,1.83,0,0,0,86.12,89.91Z"/></g></g></svg>