<?xml version="1.0" encoding="utf-8"?>
<!-- Generator: Adobe Illustrator 15.0.0, SVG Export Plug-In . SVG Version: 6.00 Build 0)  -->
<!DOCTYPE svg PUBLIC "-//W3C//DTD SVG 1.1//EN" "http://www.w3.org/Graphics/SVG/1.1/DTD/svg11.dtd">
<svg version="1.1" id="Layer_1" xmlns="http://www.w3.org/2000/svg" xmlns:xlink="http://www.w3.org/1999/xlink" x="0px" y="0px"
	 width="440.351px" height="305.364px" viewBox="145.382 100.818 440.351 305.364"
	 enable-background="new 145.382 100.818 440.351 305.364" xml:space="preserve">
<g>
	<path fill="#FDFDFC" d="M313.84,290.789c0-28.566,23.158-51.725,51.725-51.725c28.565,0,51.725,23.158,51.725,51.725
		c0,28.567-23.157,51.725-51.725,51.725S313.84,319.356,313.84,290.789"/>
	<g opacity="0.2">
		<g>
			<g>
				<defs>
					<rect id="SVGID_1_" x="150.094" y="397.75" width="47.875" height="8.433"/>
				</defs>
				<clipPath id="SVGID_2_">
					<use xlink:href="#SVGID_1_"  overflow="visible"/>
				</clipPath>
				<path clip-path="url(#SVGID_2_)" fill="#99A3B1" d="M150.094,401.966c0-2.329,10.718-4.217,23.937-4.217
					c13.22,0,23.937,1.888,23.937,4.217c0,2.328-10.717,4.216-23.937,4.216C160.812,406.182,150.094,404.297,150.094,401.966"/>
			</g>
		</g>
	</g>
	<g opacity="0.2">
		<g>
			<g>
				<defs>
					<rect id="SVGID_3_" x="213.937" y="397.75" width="47.875" height="8.433"/>
				</defs>
				<clipPath id="SVGID_4_">
					<use xlink:href="#SVGID_3_"  overflow="visible"/>
				</clipPath>
				<path clip-path="url(#SVGID_4_)" fill="#99A3B1" d="M213.937,401.966c0-2.329,10.717-4.217,23.938-4.217
					c13.22,0,23.937,1.888,23.937,4.217c0,2.328-10.718,4.216-23.937,4.216c-13.22,0-23.936-1.885-23.936-4.216"/>
			</g>
		</g>
	</g>
	<g opacity="0.2">
		<g>
			<g>
				<defs>
					<rect id="SVGID_5_" x="277.78" y="397.75" width="47.875" height="8.433"/>
				</defs>
				<clipPath id="SVGID_6_">
					<use xlink:href="#SVGID_5_"  overflow="visible"/>
				</clipPath>
				<path clip-path="url(#SVGID_6_)" fill="#99A3B1" d="M277.78,401.966c0-2.329,10.718-4.217,23.938-4.217
					c13.221,0,23.938,1.888,23.938,4.217c0,2.328-10.718,4.216-23.938,4.216c-13.219,0-23.935-1.885-23.935-4.216"/>
			</g>
		</g>
	</g>
	<g opacity="0.1">
		<g>
			<g>
				<defs>
					<rect id="SVGID_7_" x="350.211" y="399.064" width="30.698" height="5.809"/>
				</defs>
				<clipPath id="SVGID_8_">
					<use xlink:href="#SVGID_7_"  overflow="visible"/>
				</clipPath>
				<path clip-path="url(#SVGID_8_)" fill="#99A3B1" d="M350.211,401.966c0-1.604,6.873-2.904,15.351-2.904
					c8.476,0,15.348,1.301,15.348,2.904s-6.872,2.905-15.348,2.905c-8.475,0-15.347-1.302-15.347-2.904"/>
			</g>
		</g>
	</g>
	<g opacity="0.2">
		<g>
			<g>
				<defs>
					<rect id="SVGID_9_" x="405.468" y="397.75" width="47.872" height="8.433"/>
				</defs>
				<clipPath id="SVGID_10_">
					<use xlink:href="#SVGID_9_"  overflow="visible"/>
				</clipPath>
				<path clip-path="url(#SVGID_10_)" fill="#99A3B1" d="M405.468,401.966c0-2.329,10.716-4.217,23.937-4.217
					c13.219,0,23.936,1.888,23.936,4.217c0,2.328-10.717,4.216-23.936,4.216C416.185,406.182,405.468,404.297,405.468,401.966"/>
			</g>
		</g>
	</g>
	<g opacity="0.2">
		<g>
			<g>
				<defs>
					<rect id="SVGID_11_" x="469.311" y="397.75" width="47.874" height="8.433"/>
				</defs>
				<clipPath id="SVGID_12_">
					<use xlink:href="#SVGID_11_"  overflow="visible"/>
				</clipPath>
				<path clip-path="url(#SVGID_12_)" fill="#99A3B1" d="M469.311,401.966c0-2.329,10.717-4.217,23.937-4.217
					c13.221,0,23.938,1.888,23.938,4.217c0,2.328-10.717,4.216-23.938,4.216C480.028,406.182,469.313,404.297,469.311,401.966"/>
			</g>
		</g>
	</g>
	<g opacity="0.2">
		<g>
			<g>
				<defs>
					<rect id="SVGID_13_" x="533.156" y="397.75" width="47.873" height="8.433"/>
				</defs>
				<clipPath id="SVGID_14_">
					<use xlink:href="#SVGID_13_"  overflow="visible"/>
				</clipPath>
				<path clip-path="url(#SVGID_14_)" fill="#99A3B1" d="M533.156,401.966c0-2.329,10.717-4.217,23.936-4.217
					c13.22,0,23.938,1.888,23.938,4.217c0,2.328-10.718,4.216-23.938,4.216C543.873,406.182,533.157,404.297,533.156,401.966"/>
			</g>
		</g>
	</g>
	<path fill="#F6F3EC" d="M170.367,357.608c-0.024,5.339,1.458,11.128,3.747,11.128c2.288,0,3.77-5.776,3.747-11.114
		c-0.021-4.872-2.173-9.686-2.173-9.686c1.82-1.82,2.109-4.516,2.145-5.652c0.012-0.339,0-0.542,0-0.542h-7.437
		c0,0-0.011,0.205,0,0.542c0.037,1.137,0.325,3.831,2.145,5.651C172.541,347.929,170.389,352.736,170.367,357.608"/>
	<path fill="#F6F3EC" d="M234.209,357.608c-0.024,5.339,1.459,11.128,3.748,11.128c2.288,0,3.771-5.776,3.747-11.114
		c-0.022-4.872-2.174-9.686-2.174-9.686c1.82-1.82,2.109-4.516,2.146-5.652c0.01-0.339,0-0.542,0-0.542h-7.437
		c0,0-0.012,0.205,0,0.542c0.036,1.137,0.325,3.831,2.145,5.651C236.384,347.929,234.235,352.736,234.209,357.608"/>
	<path fill="#778083" d="M198.236,338.804c-0.001-0.024-0.002-0.05-0.004-0.074c-6.053,2.021-13.036,3.244-20.399,3.552
		c-0.037,1.138-0.325,3.831-2.146,5.651c0,0,2.152,4.815,2.174,9.686c0.023,5.338-1.459,11.113-3.747,11.113
		c-2.289,0-3.771-5.788-3.747-11.127c0.021-4.871,2.174-9.674,2.174-9.674c-1.82-1.819-2.108-4.514-2.145-5.65
		c-7.365-0.31-14.346-1.53-20.399-3.552c-0.003,0.027-0.004,0.054-0.005,0.081v-0.001c0,0-6.777,6.759-3.895,20.325
		c1.431,6.738,6.78,10.453,11.184,12.413c2.386,2.975,5.183,5.208,8.158,6.674c0.208,4.502,0.406,11.412,0.144,18.443
		c0,0-7.098,0.515-7.098,5.3h11.164l1.414-21.923c1.017,0.169,2.036,0.261,3.053,0.261c0.963,0,1.928-0.084,2.891-0.235
		l1.414,21.899h11.164c0-4.784-7.099-5.299-7.099-5.299c-0.261-6.993-0.066-13.864,0.141-18.366c3.075-1.482,5.963-3.784,8.414-6.87
		c4.351-1.993,9.516-5.691,10.917-12.294C204.693,346.253,198.836,339.459,198.236,338.804 M149.486,357.954
		c-0.856-3.978-0.456-7.748,0.234-10.678c0.055,6.86,1.346,12.695,3.464,17.466C151.543,363.061,150.107,360.844,149.486,357.954
		 M198.567,357.954c-0.581,2.695-1.871,4.813-3.375,6.451c1.953-4.53,3.169-10.002,3.306-16.379
		C199.08,350.839,199.351,354.31,198.567,357.954"/>
	<path fill="#99A3B1" d="M198.133,337.515c-1.547-17.895-8.058-32.429-24.019-32.429s-22.472,14.535-24.021,32.429
		c6.811,2.3,15.094,3.652,24.021,3.652C183.041,341.167,191.323,339.818,198.133,337.515"/>
	<path fill="#778083" d="M262.078,338.804c-0.001-0.024-0.002-0.05-0.004-0.074c-6.053,2.021-13.036,3.244-20.399,3.552
		c-0.037,1.138-0.325,3.831-2.146,5.651c0,0,2.152,4.815,2.174,9.686c0.024,5.338-1.459,11.113-3.747,11.113
		c-2.289,0-3.771-5.788-3.748-11.127c0.022-4.871,2.174-9.674,2.174-9.674c-1.82-1.819-2.108-4.514-2.145-5.65
		c-7.365-0.31-14.347-1.53-20.399-3.552c-0.003,0.027-0.004,0.054-0.005,0.081l-0.001-0.001c0,0-6.776,6.759-3.895,20.325
		c1.431,6.738,6.78,10.453,11.184,12.413c2.386,2.975,5.183,5.208,8.157,6.674c0.209,4.502,0.407,11.412,0.144,18.443
		c0,0-7.098,0.515-7.098,5.3h11.164l1.414-21.923c1.017,0.169,2.037,0.261,3.053,0.261c0.962,0,1.927-0.084,2.891-0.235
		l1.416,21.899h11.164c0-4.784-7.099-5.299-7.099-5.299c-0.261-6.993-0.065-13.864,0.141-18.366c3.075-1.482,5.964-3.784,8.415-6.87
		c4.352-1.993,9.516-5.691,10.917-12.294C268.535,346.253,262.68,339.459,262.078,338.804 M213.327,357.954
		c-0.855-3.978-0.455-7.748,0.233-10.678c0.056,6.86,1.346,12.695,3.464,17.466C215.386,363.061,213.946,360.844,213.327,357.954
		 M262.408,357.954c-0.581,2.695-1.87,4.813-3.374,6.451c1.953-4.53,3.169-10.002,3.306-16.379c0.578,2.814,0.849,6.284,0.065,9.928
		"/>
	<path fill="#99A3B1" d="M261.976,337.515c-1.548-17.895-8.058-32.429-24.019-32.429s-22.472,14.535-24.021,32.429
		c6.811,2.3,15.094,3.652,24.021,3.652C246.882,341.167,255.17,339.818,261.976,337.515"/>
	<path fill="#778083" d="M325.92,338.804c-0.001-0.024-0.001-0.05-0.004-0.074c-6.053,2.021-13.037,3.244-20.398,3.552
		c-0.037,1.138-0.325,3.831-2.146,5.651c0,0,2.151,4.815,2.174,9.686c0.023,5.338-1.46,11.113-3.747,11.113
		c-2.288,0-3.771-5.788-3.747-11.127c0.021-4.871,2.174-9.674,2.174-9.674c-1.819-1.819-2.108-4.514-2.145-5.65
		c-7.365-0.31-14.347-1.53-20.4-3.552c-0.003,0.027-0.004,0.054-0.005,0.081l0-0.001c0,0-6.776,6.759-3.896,20.325
		c1.431,6.738,6.78,10.453,11.184,12.413c2.386,2.975,5.183,5.208,8.158,6.674c0.208,4.502,0.407,11.412,0.145,18.443
		c0,0-7.099,0.515-7.099,5.3h11.164l1.414-21.923c1.017,0.169,2.036,0.261,3.053,0.261c0.962,0,1.928-0.084,2.891-0.235
		l1.417,21.899h11.163c0-4.784-7.099-5.299-7.099-5.299c-0.261-6.993-0.066-13.864,0.141-18.366c3.075-1.482,5.964-3.784,8.414-6.87
		c4.353-1.993,9.517-5.691,10.918-12.294C332.376,346.253,326.523,339.459,325.92,338.804 M277.171,357.954
		c-0.856-3.978-0.456-7.748,0.233-10.678c0.055,6.86,1.346,12.695,3.463,17.466C279.23,363.061,277.791,360.844,277.171,357.954
		 M326.251,357.954c-0.581,2.695-1.869,4.813-3.373,6.451c1.952-4.53,3.169-10.002,3.306-16.379
		C326.762,350.84,327.034,354.31,326.251,357.954"/>
	<path fill="#99A3B1" d="M325.82,337.515c-1.548-17.895-8.058-32.429-24.02-32.429c-15.961,0-22.472,14.535-24.021,32.429
		c6.811,2.3,15.094,3.652,24.021,3.652S319.014,339.818,325.82,337.515"/>
	<path fill="#F6F3EC" d="M298.053,357.608c-0.023,5.339,1.459,11.128,3.748,11.128c2.287,0,3.771-5.776,3.746-11.114
		c-0.021-4.872-2.174-9.686-2.174-9.686c1.82-1.82,2.108-4.516,2.146-5.652c0.012-0.339,0-0.542,0-0.542h-7.436
		c0,0-0.013,0.205,0,0.542c0.036,1.137,0.323,3.831,2.144,5.651C300.229,347.929,298.079,352.736,298.053,357.608"/>
	<path fill="#F6F3EC" d="M425.741,357.608c-0.023,5.339,1.459,11.128,3.748,11.128c2.288,0,3.77-5.776,3.747-11.114
		c-0.021-4.872-2.173-9.686-2.173-9.686c1.817-1.82,2.107-4.516,2.144-5.652c0.013-0.339,0-0.542,0-0.542h-7.434
		c0,0-0.014,0.205,0,0.542c0.036,1.137,0.324,3.831,2.143,5.651c0-0.006-2.148,4.801-2.173,9.674"/>
	<path fill="#F6F3EC" d="M489.583,357.608c-0.022,5.339,1.461,11.128,3.748,11.128c2.288,0,3.771-5.776,3.747-11.114
		c-0.021-4.872-2.173-9.686-2.173-9.686c1.819-1.82,2.107-4.516,2.146-5.652c0.011-0.339,0-0.542,0-0.542h-7.436
		c0,0-0.014,0.205,0,0.542c0.036,1.137,0.324,3.831,2.145,5.651c0-0.006-2.15,4.801-2.175,9.674"/>
	<path fill="#778083" d="M453.61,338.804c-0.004-0.024-0.004-0.05-0.007-0.074c-6.052,2.021-13.036,3.244-20.399,3.552
		c-0.036,1.138-0.324,3.831-2.145,5.651c0,0,2.152,4.815,2.174,9.686c0.023,5.338-1.459,11.113-3.747,11.113
		c-2.287,0-3.771-5.788-3.748-11.127c0.021-4.871,2.175-9.674,2.175-9.674c-1.819-1.819-2.109-4.514-2.146-5.65
		c-7.365-0.31-14.373-1.53-20.426-3.552c-0.003,0.027-0.033,0.054-0.033,0.081v-0.001c0,0-6.748,6.759-3.867,20.325
		c1.431,6.738,6.792,10.453,11.196,12.413c2.386,2.975,5.188,5.208,8.163,6.674c0.21,4.502,0.412,11.412,0.149,18.443
		c0,0-7.096,0.515-7.096,5.3h11.164l1.413-21.923c1.018,0.169,2.037,0.261,3.054,0.261c0.962,0,1.928-0.084,2.892-0.235
		l1.401,21.899h11.164c0-4.784-7.099-5.299-7.099-5.299c-0.263-6.993-0.067-13.864,0.14-18.366c3.076-1.482,5.964-3.784,8.416-6.87
		c4.351-1.993,9.515-5.691,10.916-12.294c2.736-12.884-3.118-19.678-3.721-20.334 M404.846,357.954
		c-0.856-3.978-0.456-7.748,0.232-10.678c0.056,6.86,1.348,12.695,3.464,17.466C406.905,363.061,405.465,360.844,404.846,357.954
		 M453.926,357.954c-0.581,2.695-1.871,4.813-3.375,6.451c1.953-4.53,3.17-10.002,3.306-16.379c0.577,2.814,0.851,6.284,0.066,9.928
		"/>
	<path fill="#99A3B1" d="M453.508,337.515c-1.55-17.895-8.06-32.429-24.02-32.429c-15.963,0-22.473,14.535-24.021,32.429
		c6.811,2.3,15.094,3.652,24.021,3.652S446.703,339.818,453.508,337.515"/>
	<path fill="#778083" d="M517.453,338.804c-0.003-0.024-0.003-0.05-0.007-0.074c-6.052,2.021-13.034,3.244-20.399,3.552
		c-0.036,1.138-0.323,3.831-2.144,5.651c0,0,2.151,4.815,2.173,9.686c0.025,5.338-1.458,11.113-3.745,11.113
		c-2.289,0-3.772-5.788-3.75-11.127c0.023-4.871,2.175-9.674,2.175-9.674c-1.819-1.819-2.109-4.514-2.145-5.65
		c-7.364-0.31-14.373-1.53-20.427-3.552c-0.001,0.027-0.031,0.054-0.031,0.081v-0.001c0,0-6.749,6.759-3.869,20.325
		c1.432,6.738,6.792,10.453,11.197,12.413c2.386,2.975,5.188,5.208,8.163,6.674c0.21,4.502,0.413,11.412,0.148,18.443
		c0,0-7.096,0.515-7.096,5.3h11.164l1.415-21.923c1.016,0.169,2.035,0.261,3.052,0.261c0.962,0,1.928-0.084,2.89-0.235l1.411,21.899
		h11.163c0-4.784-7.099-5.299-7.099-5.299c-0.263-6.993-0.066-13.864,0.141-18.366c3.074-1.482,5.962-3.784,8.414-6.87
		c4.351-1.993,9.515-5.691,10.918-12.294c2.734-12.884-3.12-19.678-3.723-20.334 M468.695,357.954
		c-0.856-3.978-0.454-7.748,0.232-10.678c0.058,6.86,1.349,12.695,3.465,17.466C470.753,363.061,469.316,360.844,468.695,357.954
		 M517.774,357.954c-0.58,2.695-1.869,4.813-3.373,6.451c1.952-4.53,3.169-10.002,3.305-16.379c0.579,2.814,0.852,6.284,0.066,9.928
		"/>
	<path fill="#99A3B1" d="M517.351,337.515c-1.55-17.895-8.06-32.429-24.02-32.429c-15.961,0-22.473,14.535-24.019,32.429
		c6.809,2.3,15.093,3.652,24.019,3.652C502.258,341.167,510.545,339.818,517.351,337.515"/>
	<path fill="#778083" d="M581.296,338.804c-0.003-0.024-0.005-0.05-0.006-0.074c-6.053,2.021-13.036,3.244-20.399,3.552
		c-0.036,1.138-0.323,3.831-2.146,5.651c0,0,2.154,4.815,2.175,9.686c0.024,5.338-1.459,11.113-3.746,11.113
		c-2.289,0-3.772-5.788-3.75-11.127c0.022-4.871,2.177-9.674,2.177-9.674c-1.82-1.819-2.11-4.514-2.146-5.65
		c-7.364-0.31-14.373-1.53-20.425-3.552c-0.003,0.027-0.032,0.054-0.032,0.081v-0.001c0,0-6.75,6.759-3.868,20.325
		c1.43,6.738,6.792,10.453,11.195,12.413c2.386,2.975,5.188,5.208,8.163,6.674c0.21,4.502,0.413,11.412,0.148,18.443
		c0,0-7.095,0.515-7.095,5.3h11.164l1.414-21.923c1.016,0.169,2.037,0.261,3.052,0.261c0.962,0,1.928-0.084,2.892-0.235
		l1.409,21.899h11.164c0-4.784-7.1-5.299-7.1-5.299c-0.263-6.993-0.064-13.864,0.141-18.366c3.074-1.482,5.963-3.784,8.414-6.87
		c4.353-1.993,9.517-5.691,10.918-12.294c2.736-12.884-3.12-19.678-3.721-20.334 M532.54,357.954
		c-0.857-3.978-0.456-7.748,0.232-10.678c0.056,6.86,1.347,12.695,3.464,17.466c-1.639-1.681-3.077-3.897-3.698-6.788
		 M581.618,357.954c-0.579,2.695-1.869,4.813-3.373,6.451c1.952-4.53,3.17-10.002,3.306-16.379c0.578,2.814,0.851,6.284,0.064,9.928
		"/>
	<path fill="#99A3B1" d="M581.194,337.515c-1.548-17.895-8.058-32.429-24.018-32.429c-15.963,0-22.473,14.535-24.021,32.429
		c6.809,2.3,15.093,3.652,24.021,3.652C566.102,341.167,574.389,339.818,581.194,337.515"/>
	<path fill="#F6F3EC" d="M553.428,357.608c-0.024,5.339,1.459,11.128,3.748,11.128c2.288,0,3.77-5.776,3.746-11.114
		c-0.021-4.872-2.174-9.686-2.174-9.686c1.819-1.82,2.109-4.516,2.146-5.652c0.011-0.339,0-0.542,0-0.542h-7.436
		c0,0-0.013,0.205,0,0.542c0.036,1.137,0.324,3.831,2.145,5.651C555.603,347.929,553.454,352.736,553.428,357.608"/>
	<g opacity="0.7">
		<g>
			<g>
				<defs>
					<rect id="SVGID_15_" x="357.88" y="180.322" width="13.515" height="41.583"/>
				</defs>
				<clipPath id="SVGID_16_">
					<use xlink:href="#SVGID_15_"  overflow="visible"/>
				</clipPath>
				<path clip-path="url(#SVGID_16_)" fill="#768082" d="M365.143,180.322l-7.268,10.511l1.267,28.611c0,0-0.023,1.193,0.539,2.461
					c-0.08-1.231-0.123-1.938-0.123-1.938c0-2.599,2.602-6.612,5.908-6.609c2.089,0.001,3.894,1.606,4.939,3.442l0.981-28.645
					l-5.415-7.83h-0.829V180.322z"/>
			</g>
		</g>
	</g>
	<path fill="#E3E4E8" d="M365.469,213.358c-3.309-0.003-5.908,4.011-5.91,6.609c0,0,0.046,0.706,0.124,1.938
		c0.595,9.174,3.254,47.906,5.755,47.908c2.834,0.002,5.933-49.839,5.933-49.839c0-0.957-0.353-2.105-0.963-3.175
		c-1.048-1.831-2.852-3.439-4.939-3.439 M364.324,216.63c1.602-0.634,3.415,0.148,4.052,1.75s-0.146,3.416-1.748,4.052
		c-1.604,0.636-3.417-0.148-4.053-1.749c-0.639-1.608,0.144-3.421,1.746-4.06"/>
	<path fill="#768082" d="M366.632,222.434c1.601-0.636,2.385-2.45,1.747-4.052c-0.634-1.604-2.447-2.386-4.052-1.751
		c-1.602,0.637-2.386,2.45-1.75,4.053c0.639,1.602,2.451,2.386,4.06,1.753"/>
	<path fill="#52C0E8" d="M389.767,267.733c-0.003-0.022-0.005-0.049-0.008-0.073c-6.051,2.02-13.035,3.243-20.398,3.551
		c-0.037,1.139-0.324,3.83-2.146,5.652c0,0,2.153,4.813,2.173,9.684c0.025,5.339-1.457,11.114-3.745,11.114
		c-2.287,0-3.771-5.788-3.748-11.127c0.021-4.872,2.175-9.673,2.175-9.673c-1.819-1.821-2.108-4.514-2.145-5.652
		c-7.364-0.31-14.347-1.53-20.4-3.552c-0.004,0.027-0.004,0.055-0.005,0.082l-0.002-0.001c0,0-6.775,6.759-3.895,20.325
		c1.432,6.736,6.78,10.453,11.186,12.413c2.385,2.975,5.181,5.208,8.156,6.673c0.208,4.503,0.407,11.412,0.145,18.443
		c0,0-7.098,0.516-7.098,5.3h11.163l1.415-21.921c1.016,0.168,2.037,0.26,3.053,0.26c0.962,0,1.929-0.084,2.891-0.235l1.415,21.899
		h11.164c0-4.784-7.1-5.301-7.1-5.301c-0.261-6.992-0.064-13.863,0.141-18.365c3.076-1.481,5.965-3.784,8.414-6.871
		c4.353-1.992,9.517-5.689,10.92-12.292c2.734-12.884-3.12-19.678-3.723-20.335 M341.014,286.88
		c-0.856-3.976-0.456-7.748,0.234-10.676c0.054,6.86,1.345,12.695,3.462,17.465c-1.638-1.681-3.077-3.897-3.698-6.787
		 M390.094,286.882c-0.58,2.696-1.869,4.81-3.375,6.45c1.954-4.528,3.17-10.001,3.306-16.376c0.578,2.813,0.851,6.28,0.066,9.926"/>
	<path fill="#FDB515" d="M389.664,266.443c-1.548-17.894-8.058-32.427-24.019-32.427c-15.962,0-22.472,14.533-24.02,32.427
		c6.809,2.302,15.094,3.651,24.02,3.651s17.213-1.348,24.021-3.649"/>
	<path fill="#FDFDFC" d="M361.897,286.537c-0.024,5.338,1.459,11.127,3.748,11.127c2.287,0,3.769-5.775,3.745-11.114
		c-0.02-4.869-2.172-9.686-2.172-9.686c1.818-1.817,2.108-4.517,2.146-5.651c0.011-0.339,0-0.544,0-0.544h-7.437
		c0,0-0.013,0.208,0,0.544c0.036,1.135,0.324,3.832,2.144,5.651C364.071,276.858,361.921,281.665,361.897,286.537"/>
	<path fill="#768082" d="M350.929,180.322c0,0-0.042-0.091-0.119-0.258l-28.977,43.178c3-0.86,6.62,1.756,7.544,4.065
		c0,0,0.398,1.201,1.057,3.224l27.446-39.698l7.265-10.511L350.929,180.322L350.929,180.322z"/>
	<path fill="#E3E4E8" d="M321.832,223.242c-0.133,0.038-0.268,0.072-0.398,0.126c-3.069,1.231-3.985,5.926-3.018,8.337
		c0,0,21.408,45.116,24.038,44.061c2.213-0.889-8.543-34.549-12.021-45.234c-0.658-2.022-1.058-3.224-1.058-3.224
		C328.449,225,324.829,222.379,321.832,223.242 M324.944,226.229c1.584,0.677,2.321,2.511,1.643,4.096
		c-0.676,1.585-2.511,2.32-4.095,1.644c-1.587-0.677-2.321-2.512-1.645-4.096c0.681-1.584,2.511-2.319,4.095-1.645"/>
	<path fill="#768082" d="M320.85,227.873c-0.677,1.585,0.059,3.419,1.645,4.097c1.584,0.677,3.417-0.059,4.096-1.644
		c0.676-1.585-0.06-3.418-1.644-4.097c-1.584-0.675-3.416,0.061-4.095,1.644"/>
	<path fill="#768082" d="M409.292,223.242l-28.801-42.92h-14.512l5.413,7.83l29.3,42.379c0.657-2.022,1.056-3.224,1.056-3.224
		c0.92-2.307,4.541-4.928,7.541-4.065"/>
	<path fill="#E3E4E8" d="M409.697,223.367c-0.133-0.053-0.266-0.089-0.4-0.127c-3.001-0.86-6.618,1.757-7.544,4.065
		c0,0-0.399,1.203-1.056,3.224c-3.479,10.686-14.235,44.346-12.021,45.234c2.63,1.054,24.037-44.06,24.037-44.06
		C413.677,229.293,412.762,224.596,409.697,223.367 M406.178,226.229c1.586-0.677,3.42,0.06,4.099,1.644
		c0.676,1.585-0.06,3.419-1.645,4.097c-1.586,0.677-3.419-0.059-4.097-1.644C403.86,228.742,404.595,226.911,406.178,226.229"/>
	<path fill="#768082" d="M408.629,231.974c1.585-0.678,2.322-2.511,1.645-4.097c-0.679-1.586-2.512-2.32-4.099-1.644
		c-1.586,0.677-2.321,2.512-1.644,4.096C405.213,231.914,407.043,232.649,408.629,231.974"/>
	<path fill="#768082" d="M339.661,100.818v54.231c0.467-0.764,1.074-1.473,1.807-2.106v-52.125"/>
	<path fill="#768082" d="M390.252,100.818v51.809c0.703,0.55,1.315,1.16,1.808,1.824v-53.632"/>
	<path fill="#6D747D" d="M345.636,148.898c-1.612,0.77-3.033,1.869-4.165,3.226c-0.733,0.879-1.341,1.864-1.807,2.925
		c-0.666,1.515-1.043,3.186-1.043,4.946c0,5.664,3.833,10.422,9.043,11.854c-2.103-6.548-4.083-15.685-2.029-22.949"/>
	<path fill="#6D747D" d="M383.513,172.076c5.688-1.083,9.992-6.076,9.992-12.081c0-2.088-0.522-4.054-1.442-5.777
		c-0.492-0.923-1.104-1.77-1.807-2.534c-1.636-1.781-3.781-3.076-6.213-3.652c2.914,7.474,1.313,17.22-0.525,24.043"/>
	<path fill="#E3E4E8" d="M365.143,180.322h15.627c0,0,1.432-3.379,2.742-8.246c1.839-6.822,3.439-16.569,0.529-24.043
		c-2.441-6.267-8.056-10.936-19.367-10.936c-11.826,0-17.148,5.103-19.041,11.801c-2.051,7.265-0.068,16.404,2.029,22.952
		c1.346,4.198,2.736,7.327,3.145,8.214c0.077,0.167,0.119,0.258,0.119,0.258h14.222H365.143z M365.004,143.75
		c7.068,0,12.798,5.73,12.798,12.798c0,7.068-5.729,12.798-12.798,12.798c-7.067,0-12.798-5.73-12.798-12.798
		s5.729-12.799,12.8-12.799"/>
	<path fill="#768082" d="M352.207,156.548c0,7.068,5.729,12.798,12.798,12.798s12.798-5.73,12.798-12.798
		c0-7.067-5.729-12.798-12.798-12.798s-12.799,5.729-12.799,12.796"/>
</g>
</svg>
